<svg width="512" height="512" viewBox="0 0 512 512" fill="none" xmlns="http://www.w3.org/2000/svg">
  <defs>
    <linearGradient id="bg" x1="96" y1="72" x2="416" y2="440" gradientUnits="userSpaceOnUse">
      <stop stop-color="#FFF6EE"/>
      <stop offset="1" stop-color="#FFDCC8"/>
    </linearGradient>
    <linearGradient id="ring" x1="156" y1="112" x2="354" y2="400" gradientUnits="userSpaceOnUse">
      <stop stop-color="#FC5200"/>
      <stop offset="1" stop-color="#C2410C"/>
    </linearGradient>
    <linearGradient id="hand" x1="251" y1="176" x2="298" y2="326" gradientUnits="userSpaceOnUse">
      <stop stop-color="#1E3A5F"/>
      <stop offset="1" stop-color="#0F2744"/>
    </linearGradient>
    <filter id="shadow" x="72" y="52" width="368" height="408" filterUnits="userSpaceOnUse" color-interpolation-filters="sRGB">
      <feDropShadow dx="0" dy="22" stdDeviation="26" flood-color="#A64A1A" flood-opacity="0.18"/>
    </filter>
  </defs>

  <rect width="512" height="512" rx="120" fill="#FFF9F4"/>
  <g filter="url(#shadow)">
    <rect x="96" y="72" width="320" height="368" rx="104" fill="url(#bg)"/>
    <rect x="228" y="88" width="56" height="42" rx="16" fill="url(#ring)"/>
    <rect x="292" y="102" width="28" height="54" rx="12" transform="rotate(28 292 102)" fill="#F08B52"/>
    <circle cx="256" cy="256" r="116" fill="#FFFDFB" stroke="url(#ring)" stroke-width="22"/>
    <circle cx="256" cy="256" r="82" fill="#FFF2E9" opacity="0.9"/>
    <path d="M256 176V262L314 304" stroke="url(#hand)" stroke-width="22" stroke-linecap="round" stroke-linejoin="round"/>
    <circle cx="256" cy="256" r="18" fill="#0F2744"/>
    <path d="M174 366H338" stroke="#F1A67A" stroke-width="10" stroke-linecap="round" opacity="0.7"/>
    <path d="M256 148V168" stroke="#C2410C" stroke-width="10" stroke-linecap="round"/>
    <path d="M256 344V364" stroke="#C2410C" stroke-width="10" stroke-linecap="round"/>
    <path d="M148 256H168" stroke="#C2410C" stroke-width="10" stroke-linecap="round"/>
    <path d="M344 256H364" stroke="#C2410C" stroke-width="10" stroke-linecap="round"/>
  </g>
</svg>
