<svg width="1200" height="630" viewBox="0 0 1200 630" fill="none" xmlns="http://www.w3.org/2000/svg" role="img" aria-labelledby="title desc">
  <title id="title">mypace.run social preview</title>
  <desc id="desc">A sleek social preview graphic for mypace.run showing the pace converter brand, tagline, and sample running pace conversion cards.</desc>
  <defs>
    <linearGradient id="bg" x1="110" y1="52" x2="1068" y2="606" gradientUnits="userSpaceOnUse">
      <stop stop-color="#FFF9F4"/>
      <stop offset="1" stop-color="#FBF4ED"/>
    </linearGradient>
    <radialGradient id="glowA" cx="0" cy="0" r="1" gradientUnits="userSpaceOnUse" gradientTransform="translate(222 128) rotate(29.7) scale(262 178)">
      <stop stop-color="#FC5200" stop-opacity="0.18"/>
      <stop offset="1" stop-color="#FC5200" stop-opacity="0"/>
    </radialGradient>
    <radialGradient id="glowB" cx="0" cy="0" r="1" gradientUnits="userSpaceOnUse" gradientTransform="translate(989 92) rotate(134.5) scale(244 164)">
      <stop stop-color="#FC5200" stop-opacity="0.12"/>
      <stop offset="1" stop-color="#FC5200" stop-opacity="0"/>
    </radialGradient>
    <radialGradient id="logoGlow" cx="0" cy="0" r="1" gradientUnits="userSpaceOnUse" gradientTransform="translate(1020 142) rotate(90) scale(92 92)">
      <stop stop-color="#FC5200" stop-opacity="0.18"/>
      <stop offset="1" stop-color="#FC5200" stop-opacity="0"/>
    </radialGradient>
    <linearGradient id="accent" x1="0" y1="0" x2="1" y2="1">
      <stop stop-color="#FC5200"/>
      <stop offset="1" stop-color="#C2410C"/>
    </linearGradient>
    <linearGradient id="surface" x1="0" y1="0" x2="0" y2="1">
      <stop stop-color="#FFFFFF"/>
      <stop offset="1" stop-color="#FFF8F3"/>
    </linearGradient>
    <linearGradient id="panel" x1="0" y1="0" x2="0" y2="1">
      <stop stop-color="#FFFFFF" stop-opacity="0.98"/>
      <stop offset="1" stop-color="#FFF5EC" stop-opacity="0.98"/>
    </linearGradient>
    <filter id="shadowXL" x="88" y="24" width="1040" height="582" filterUnits="userSpaceOnUse" color-interpolation-filters="sRGB">
      <feFlood flood-opacity="0" result="BackgroundImageFix"/>
      <feColorMatrix in="SourceAlpha" type="matrix" values="0 0 0 0 0 0 0 0 0 0 0 0 0 0 0 0 0 0 127 0" result="hardAlpha"/>
      <feOffset dy="24"/>
      <feGaussianBlur stdDeviation="22"/>
      <feColorMatrix type="matrix" values="0 0 0 0 0.560784 0 0 0 0 0.247059 0 0 0 0 0.0705882 0 0 0 0.12 0"/>
      <feBlend mode="normal" in2="BackgroundImageFix" result="effect1_dropShadow_0_1"/>
      <feBlend mode="normal" in="SourceGraphic" in2="effect1_dropShadow_0_1" result="shape"/>
    </filter>
    <filter id="shadowCard" x="0" y="0" width="1200" height="630" filterUnits="userSpaceOnUse" color-interpolation-filters="sRGB">
      <feFlood flood-opacity="0" result="BackgroundImageFix"/>
      <feColorMatrix in="SourceAlpha" type="matrix" values="0 0 0 0 0 0 0 0 0 0 0 0 0 0 0 0 0 0 127 0" result="hardAlpha"/>
      <feOffset dy="14"/>
      <feGaussianBlur stdDeviation="16"/>
      <feColorMatrix type="matrix" values="0 0 0 0 0.560784 0 0 0 0 0.247059 0 0 0 0 0.0705882 0 0 0 0.1 0"/>
      <feBlend mode="normal" in2="BackgroundImageFix" result="effect1_dropShadow_0_1"/>
      <feBlend mode="normal" in="SourceGraphic" in2="effect1_dropShadow_0_1" result="shape"/>
    </filter>
  </defs>

  <rect width="1200" height="630" rx="0" fill="url(#bg)"/>
  <rect width="1200" height="630" fill="url(#glowA)"/>
  <rect width="1200" height="630" fill="url(#glowB)"/>

  <g opacity="0.22">
    <path d="M86 0V630" stroke="#FFFFFF"/>
    <path d="M142 0V630" stroke="#FFFFFF"/>
    <path d="M198 0V630" stroke="#FFFFFF"/>
    <path d="M254 0V630" stroke="#FFFFFF"/>
    <path d="M310 0V630" stroke="#FFFFFF"/>
    <path d="M366 0V630" stroke="#FFFFFF"/>
    <path d="M422 0V630" stroke="#FFFFFF"/>
    <path d="M478 0V630" stroke="#FFFFFF"/>
    <path d="M534 0V630" stroke="#FFFFFF"/>
    <path d="M590 0V630" stroke="#FFFFFF"/>
    <path d="M646 0V630" stroke="#FFFFFF"/>
    <path d="M702 0V630" stroke="#FFFFFF"/>
    <path d="M758 0V630" stroke="#FFFFFF"/>
    <path d="M814 0V630" stroke="#FFFFFF"/>
    <path d="M870 0V630" stroke="#FFFFFF"/>
    <path d="M926 0V630" stroke="#FFFFFF"/>
    <path d="M982 0V630" stroke="#FFFFFF"/>
    <path d="M1038 0V630" stroke="#FFFFFF"/>
    <path d="M1094 0V630" stroke="#FFFFFF"/>
    <path d="M0 72H1200" stroke="#FFFFFF"/>
    <path d="M0 128H1200" stroke="#FFFFFF"/>
    <path d="M0 184H1200" stroke="#FFFFFF"/>
    <path d="M0 240H1200" stroke="#FFFFFF"/>
    <path d="M0 296H1200" stroke="#FFFFFF"/>
    <path d="M0 352H1200" stroke="#FFFFFF"/>
    <path d="M0 408H1200" stroke="#FFFFFF"/>
    <path d="M0 464H1200" stroke="#FFFFFF"/>
    <path d="M0 520H1200" stroke="#FFFFFF"/>
    <path d="M0 576H1200" stroke="#FFFFFF"/>
  </g>

  <g filter="url(#shadowXL)">
    <rect x="132" y="76" width="936" height="458" rx="38" fill="url(#surface)"/>
    <rect x="132.75" y="76.75" width="934.5" height="456.5" rx="37.25" stroke="#ECDCCF" stroke-opacity="0.82" stroke-width="1.5"/>
  </g>

  <g>
    <rect x="184" y="124" width="155" height="32" rx="16" fill="#FFF2E8"/>
    <rect x="184.5" y="124.5" width="154" height="31" rx="15.5" stroke="#FC5200" stroke-opacity="0.18"/>
    <circle cx="206" cy="140" r="5" fill="url(#accent)"/>
    <text x="222" y="144.4" fill="#C2410C" font-family="Inter, Arial, sans-serif" font-size="13" font-weight="700" letter-spacing="0.08em">MYPACE.RUN</text>

    <text x="184" y="232" fill="#16120F" font-family="Inter, Arial, sans-serif" font-size="70" font-weight="700" letter-spacing="-0.06em">One input.</text>
    <text x="184" y="300" fill="#16120F" font-family="Inter, Arial, sans-serif" font-size="70" font-weight="700" letter-spacing="-0.06em">Every pace.</text>
    <text x="184" y="346" fill="#7A685D" font-family="Inter, Arial, sans-serif" font-size="27" font-weight="500" letter-spacing="-0.02em">Fast, simple pace conversion for runners.</text>
    <text x="184" y="383" fill="#9A755F" font-family="Inter, Arial, sans-serif" font-size="20" font-weight="500">Minimal clicks. Clean inputs. VDOT, GAP, splits, and race projections.</text>
  </g>

  <g filter="url(#shadowCard)">
    <rect x="676" y="128" width="318" height="140" rx="28" fill="url(#panel)"/>
    <rect x="676.75" y="128.75" width="316.5" height="138.5" rx="27.25" stroke="#ECDCCF" stroke-opacity="0.88" stroke-width="1.5"/>

    <rect x="702" y="154" width="266" height="54" rx="18" fill="#FFFFFF"/>
    <rect x="702.75" y="154.75" width="264.5" height="52.5" rx="17.25" stroke="#ECDCCF" stroke-opacity="0.88" stroke-width="1.5"/>
    <text x="728" y="189" fill="#16120F" font-family="Inter, Arial, sans-serif" font-size="28" font-weight="700" letter-spacing="-0.03em">5:30</text>
    <rect x="896" y="166" width="56" height="30" rx="15" fill="url(#accent)"/>
    <text x="909" y="186.5" fill="#FFF7F2" font-family="Inter, Arial, sans-serif" font-size="15" font-weight="700">Share</text>

    <text x="702" y="236" fill="#B59D8B" font-family="Inter, Arial, sans-serif" font-size="12" font-weight="700" letter-spacing="0.16em">QUICK UNIT</text>
    <g>
      <rect x="787" y="221" width="68" height="30" rx="15" fill="url(#accent)"/>
      <text x="805" y="240.5" fill="#FFF7F2" font-family="Inter, Arial, sans-serif" font-size="14" font-weight="700">min/km</text>
      <rect x="863" y="221" width="63" height="30" rx="15" fill="#FFF2E8"/>
      <rect x="863.5" y="221.5" width="62" height="29" rx="14.5" stroke="#FC5200" stroke-opacity="0.18"/>
      <text x="880" y="240.5" fill="#7A4A2D" font-family="Inter, Arial, sans-serif" font-size="14" font-weight="700">min/mi</text>
      <rect x="934" y="221" width="44" height="30" rx="15" fill="#FFF2E8"/>
      <rect x="934.5" y="221.5" width="43" height="29" rx="14.5" stroke="#FC5200" stroke-opacity="0.18"/>
      <text x="947" y="240.5" fill="#7A4A2D" font-family="Inter, Arial, sans-serif" font-size="14" font-weight="700">km/h</text>
    </g>
  </g>

  <g filter="url(#shadowCard)">
    <rect x="676" y="292" width="154" height="104" rx="24" fill="#FFFFFF"/>
    <rect x="676.75" y="292.75" width="152.5" height="102.5" rx="23.25" stroke="#ECDCCF" stroke-opacity="0.88" stroke-width="1.5"/>
    <text x="702" y="321" fill="#9A755F" font-family="Inter, Arial, sans-serif" font-size="11" font-weight="700" letter-spacing="0.18em">MINUTES / KILOMETER</text>
    <text x="702" y="365" fill="#16120F" font-family="Inter, Arial, sans-serif" font-size="36" font-weight="700" letter-spacing="-0.05em">5:30</text>
    <text x="773" y="365" fill="#B59D8B" font-family="Inter, Arial, sans-serif" font-size="18" font-weight="700">min/km</text>
  </g>

  <g filter="url(#shadowCard)">
    <rect x="840" y="292" width="154" height="104" rx="24" fill="#FFFFFF"/>
    <rect x="840.75" y="292.75" width="152.5" height="102.5" rx="23.25" stroke="#ECDCCF" stroke-opacity="0.88" stroke-width="1.5"/>
    <text x="866" y="321" fill="#9A755F" font-family="Inter, Arial, sans-serif" font-size="11" font-weight="700" letter-spacing="0.18em">MILES / HOUR</text>
    <text x="866" y="365" fill="#16120F" font-family="Inter, Arial, sans-serif" font-size="36" font-weight="700" letter-spacing="-0.05em">6.78</text>
    <text x="938" y="365" fill="#B59D8B" font-family="Inter, Arial, sans-serif" font-size="18" font-weight="700">mph</text>
  </g>

  <g filter="url(#shadowCard)">
    <rect x="676" y="416" width="318" height="78" rx="24" fill="#FFFFFF"/>
    <rect x="676.75" y="416.75" width="316.5" height="76.5" rx="23.25" stroke="#ECDCCF" stroke-opacity="0.88" stroke-width="1.5"/>
    <text x="702" y="445" fill="#9A755F" font-family="Inter, Arial, sans-serif" font-size="11" font-weight="700" letter-spacing="0.18em">RACE PROJECTIONS</text>
    <text x="702" y="473" fill="#16120F" font-family="Inter, Arial, sans-serif" font-size="25" font-weight="700" letter-spacing="-0.04em">5K 27:30</text>
    <text x="840" y="473" fill="#16120F" font-family="Inter, Arial, sans-serif" font-size="25" font-weight="700" letter-spacing="-0.04em">10K 55:00</text>
    <text x="938" y="473" fill="#FC5200" font-family="Inter, Arial, sans-serif" font-size="15" font-weight="700">VDOT • GAP • SPLITS</text>
  </g>

  <g>
    <circle cx="1020" cy="142" r="92" fill="url(#logoGlow)"/>
    <circle cx="1020" cy="142" r="34" stroke="#C2410C" stroke-width="5"/>
    <rect x="1015" y="95" width="10" height="13" rx="4" fill="#C2410C"/>
    <rect x="1031.5" y="102.2" width="8" height="15" rx="4" transform="rotate(35 1031.5 102.2)" fill="#C2410C"/>
    <rect x="1018.5" y="126" width="3" height="16" rx="1.5" fill="#C2410C" transform="rotate(35 1018.5 126)"/>
    <rect x="1018.5" y="127" width="3" height="12" rx="1.5" fill="#C2410C" transform="rotate(-60 1018.5 127)"/>
    <circle cx="1020" cy="142" r="4.5" fill="#C2410C"/>
  </g>

  <text x="184" y="468" fill="#C2410C" font-family="Inter, Arial, sans-serif" font-size="18" font-weight="700">mypace.run</text>
  <text x="280" y="468" fill="#B59D8B" font-family="Inter, Arial, sans-serif" font-size="18" font-weight="600">Built for effortless running pace conversion.</text>
</svg>
